<?xml version="1.0" encoding="UTF-8"?>
<svg id="_레이어_3" data-name="레이어_3" xmlns="http://www.w3.org/2000/svg" xmlns:xlink="http://www.w3.org/1999/xlink" version="1.1" viewBox="0 0 194 139.72">
  <!-- Generator: Adobe Illustrator 30.6.0, SVG Export Plug-In . SVG Version: 2.1.4 Build 109)  -->
  <defs>
    <style>
      .st0 {
        fill: #3f99d5;
      }

      .st1 {
        fill: #f29600;
      }

      .st2 {
        fill: url(#_무제_그라디언트_4);
      }

      .st3 {
        fill: #3c2576;
      }

      .st4 {
        fill: url(#_무제_그라디언트_40);
      }

      .st5 {
        fill: #f5f5f5;
      }
    </style>
    <linearGradient id="_무제_그라디언트_4" data-name="무제 그라디언트 4" x1="74.34" y1="7.33" x2="118.4" y2="7.33" gradientUnits="userSpaceOnUse">
      <stop offset="0" stop-color="#bebebe"/>
      <stop offset=".33" stop-color="#bababa"/>
      <stop offset=".63" stop-color="#afafaf"/>
      <stop offset=".91" stop-color="#9d9d9d"/>
      <stop offset="1" stop-color="#969696"/>
    </linearGradient>
    <linearGradient id="_무제_그라디언트_40" data-name="무제 그라디언트 40" x1="70.58" y1="8.78" x2="101.49" y2="58.7" gradientUnits="userSpaceOnUse">
      <stop offset="0" stop-color="#f5f4f4"/>
      <stop offset="1" stop-color="#b2b2b2"/>
    </linearGradient>
  </defs>
  <rect class="st3" x="82.21" y="14.67" width="27.83" height="19.34"/>
  <rect class="st2" x="74.34" width="44.07" height="14.67"/>
  <path class="st4" d="M74.34,0s5.23,12.91,20.83,33.59l-10.22,10.41s-7.39-5.46-18.21-29.43l7.61-14.57Z"/>
  <path class="st1" d="M148.33,133.63c-29.1-5.86-70.64-22.98-87.06-50.8-16.65-28.23-6.16-51.43-6.16-51.43l.13-.2L3.3,27.72s-15.99,49.38,22.45,85.86c45.21,42.91,122.57,20.05,122.57,20.05"/>
  <path class="st0" d="M90.4,45.74c5.1,4.54,11.17,9.01,18.35,13.01,20.23,11.24,38.09,18.9,83.14,27.84,1.37-6.58,2.11-13.39,2.11-20.38,0-21.14-6.62-40.71-17.9-56.8l-50.85,2.97-34.85,33.37h0Z"/>
  <path class="st5" d="M118.4,0l6.84,12.39s-13.97,31.18-45.38,45.98l-7.67-6.1S105.08,29.17,118.4,0Z"/>
  <path class="st3" d="M108.75,58.74c-7.19-4-13.25-8.47-18.35-13.01-17.42-15.51-23.4-31.7-23.4-31.7l-11.77,17.14-.13.2s-10.49,23.2,6.16,51.43c16.17,27.43,56.78,44.46,85.81,50.56h.08c.39.09.78.18,1.17.26,6.46,1.3,12.29,2.05,17.1,2.22,12.38-12.56,21.43-28.42,25.74-46.13.25-1.04.5-2.08.72-3.13-45.04-8.94-62.9-16.61-83.14-27.84"/>
</svg>