<?xml version="1.0" encoding="UTF-8"?>
<svg id="_레이어_3" data-name="레이어_3" xmlns="http://www.w3.org/2000/svg" xmlns:xlink="http://www.w3.org/1999/xlink" version="1.1" viewBox="0 0 445.01 254.05">
  <!-- Generator: Adobe Illustrator 30.6.0, SVG Export Plug-In . SVG Version: 2.1.4 Build 109)  -->
  <defs>
    <style>
      .st0 {
        fill: #3f99d5;
      }

      .st1 {
        fill: #f29600;
      }

      .st2 {
        fill: url(#_무제_그라디언트_4);
      }

      .st3 {
        fill: #005dab;
      }

      .st4 {
        fill: #3c2576;
      }

      .st5 {
        fill: url(#_무제_그라디언트_40);
      }

      .st6 {
        fill: #f5f5f5;
      }

      .st7 {
        fill: #ed7700;
      }
    </style>
    <linearGradient id="_무제_그라디언트_4" data-name="무제 그라디언트 4" x1="164.07" y1="8.39" x2="208.14" y2="8.39" gradientUnits="userSpaceOnUse">
      <stop offset="0" stop-color="#bebebe"/>
      <stop offset=".3" stop-color="#b9b9b9"/>
      <stop offset=".65" stop-color="#ababab"/>
      <stop offset="1" stop-color="#969696"/>
    </linearGradient>
    <linearGradient id="_무제_그라디언트_40" data-name="무제 그라디언트 40" x1="160.33" y1="9.83" x2="191.24" y2="59.74" gradientUnits="userSpaceOnUse">
      <stop offset="0" stop-color="#f5f4f4"/>
      <stop offset="1" stop-color="#b2b2b2"/>
    </linearGradient>
  </defs>
  <rect class="st4" x="171.94" y="15.72" width="27.83" height="19.34"/>
  <rect class="st2" x="164.07" y="1.05" width="44.07" height="14.67"/>
  <path class="st5" d="M164.07,1.05s5.23,12.91,20.83,33.59l-10.22,10.41s-7.32-5.42-18.14-29.39l7.54-14.6Z"/>
  <path class="st0" d="M175.98,50.78c47.64,42.5,131.9,41.55,131.9,41.55,83-8.88,137.13-43.85,137.13-43.85V0l-230.03,13.44-38.99,37.34h-.01Z"/>
  <path class="st1" d="M147.39,32.39c-3.1,62.83,55.14,79.19,55.14,79.19C65.07,110.56,0,70.97,0,70.97V22.52l147.39,9.87Z"/>
  <path class="st6" d="M208.14,1.05l6.84,12.39s-13.97,31.18-45.38,45.98l-7.67-6.1S194.81,30.22,208.14,1.05Z"/>
  <path class="st4" d="M201.63,111.58s52.97,2.57,106.2-8.63v-10.6c-65.14-11.2-85.58-19.44-109.32-32.63-31.7-17.61-41.68-44.63-41.68-44.63l-11.84,17.33s-9.31,22.43,5.32,44.6c13,19.71,39.87,33.57,51.33,34.57"/>
  <path class="st3" d="M445,48.48V0l-25.33,1.48v60.32c16.31-7.5,25.33-13.32,25.33-13.32"/>
  <path class="st7" d="M0,22.52v48.45s8.34,5.05,25.25,11.58V24.21L0,22.52Z"/>
  <path class="st3" d="M130.61,169.97c2.32,1.19,6.12,2.3,9.78,2.3s5.58-1.42,5.58-3.53-1.84-3.37-6.25-5.15c-6.97-2.96-10.6-7.07-10.6-12.36,0-7.26,5.71-13.03,16.03-13.03,4.36,0,7.68.88,10,1.95l-2.05,8.75c-1.64-.78-4.35-1.82-8.01-1.82-3.36,0-5.15,1.39-5.15,3.25,0,2.03,1.82,2.98,6.93,5.17,7.02,2.9,9.96,7.06,9.96,12.42,0,7.44-5.71,13.31-16.91,13.31-4.62,0-9.05-1.17-11.16-2.27l1.86-8.98h0Z"/>
  <polygon class="st3" points="186.39 163.5 173.11 163.5 173.11 171.74 187.97 171.74 187.97 180.65 162.37 180.65 162.37 138.77 187.15 138.77 187.15 147.68 173.11 147.68 173.11 154.76 186.39 154.76 186.39 163.5"/>
  <g>
    <path class="st3" d="M203.49,159.74c0,8.48,2.94,12.82,7.42,12.82s7.18-5.17,7.18-13.03c0-7.21-2.56-12.67-7.24-12.67-4.42,0-7.36,4.73-7.36,12.88M229.41,159.14c0,14.18-7.38,22.14-18.96,22.14-12.26,0-18.26-10.17-18.26-21.43s6.89-21.71,18.92-21.71c12.84,0,18.31,10.76,18.31,21"/>
    <path class="st3" d="M245.68,138.77v24.69c0,6.09,1.98,9.07,5.61,9.07s5.61-2.64,5.61-9.07v-24.69h10.74v23.7c0,12.28-5.68,18.81-16.59,18.81s-16.12-6.47-16.12-19.03v-23.48h10.75Z"/>
  </g>
  <polygon class="st3" points="275.04 138.77 285.78 138.77 285.78 171.63 300.15 171.63 300.15 180.65 275.04 180.65 275.04 138.77"/>
  <g>
    <path class="st0" d="M127.13,253.03v-2.65l5.46-5.04c18.43-17.07,24.49-23.47,24.49-32.17,0-6.06-2.65-12.97-13.31-12.97-5.55,0-10.24,2.82-13.06,5.29l-1.71-2.82c4.27-3.84,9.64-6.14,15.62-6.14,12.89,0,16.73,9.64,16.73,15.53,0,11.09-8.19,19.03-24.32,33.79l-3.92,3.5v.17h29.87v3.5h-35.85Z"/>
    <path class="st0" d="M175.6,225.72c0,16.13,6.14,24.92,14.59,24.92,10.24,0,14.94-10.24,14.94-25.77s-4.35-24.92-14.76-24.92c-8.02,0-14.76,8.53-14.76,25.77M209.49,224.27c0,19.71-7.51,29.78-19.8,29.78-9.39,0-18.09-8.62-18.43-28.42,0-20.14,9.82-29.1,19.8-29.1,10.84,0,18.43,8.96,18.43,27.74"/>
    <path class="st0" d="M216.74,253.03v-2.65l5.46-5.04c18.43-17.07,24.49-23.47,24.49-32.17,0-6.06-2.65-12.97-13.31-12.97-5.55,0-10.24,2.82-13.06,5.29l-1.71-2.82c4.27-3.84,9.64-6.14,15.62-6.14,12.89,0,16.73,9.64,16.73,15.53,0,11.09-8.19,19.03-24.32,33.79l-3.92,3.5v.17h29.87v3.5h-35.85Z"/>
  </g>
  <polygon class="st0" points="295.84 197.56 295.84 200.89 268.62 253.03 264.52 253.03 291.49 201.23 291.49 201.06 260.85 201.06 260.85 197.56 295.84 197.56"/>
</svg>