<svg xmlns="http://www.w3.org/2000/svg" width="178" height="213" viewBox="0 0 178 213" role="img" aria-label="SIC27 킨텍스 제2전시장 지도 마커">
  <title>SIC27 킨텍스 제2전시장</title>
  <path d="M 89 0 C 40 0 0 36 0 86 C 0 143 43 177 89 213 C 135 177 178 143 178 86 C 178 36 138 0 89 0 Z" fill="#0A1327" fill-opacity="0.90"/>
  <path d="M 53.793 52.287 L 53.793 57.690 Q 51.693 56.749 49.692 56.273 Q 47.696 55.792 45.918 55.792 Q 43.561 55.792 42.429 56.443 Q 41.303 57.088 41.303 58.455 Q 41.303 59.484 42.063 60.058 Q 42.823 60.627 44.824 61.037 L 47.624 61.600 Q 51.879 62.459 53.673 64.203 Q 55.472 65.942 55.472 69.158 Q 55.472 73.374 52.967 75.436 Q 50.463 77.498 45.317 77.498 Q 42.894 77.498 40.449 77.033 Q 38.005 76.573 35.560 75.666 L 35.560 70.115 Q 38.005 71.411 40.285 72.073 Q 42.566 72.729 44.688 72.729 Q 46.842 72.729 47.985 72.013 Q 49.128 71.291 49.128 69.956 Q 49.128 68.764 48.352 68.113 Q 47.575 67.463 45.251 66.948 L 42.703 66.385 Q 38.874 65.565 37.103 63.771 Q 35.336 61.977 35.336 58.937 Q 35.336 55.125 37.797 53.074 Q 40.258 51.023 44.874 51.023 Q 46.979 51.023 49.199 51.341 Q 51.420 51.658 53.793 52.287 Z M 61.249 51.483 L 67.828 51.483 L 67.828 77.000 L 61.249 77.000 L 61.249 51.483 Z M 94.506 75.600 Q 92.690 76.541 90.727 77.016 Q 88.764 77.498 86.626 77.498 Q 80.249 77.498 76.525 73.932 Q 72.801 70.366 72.801 64.269 Q 72.801 58.149 76.525 54.589 Q 80.249 51.023 86.626 51.023 Q 88.764 51.023 90.727 51.505 Q 92.690 51.980 94.506 52.921 L 94.506 58.198 Q 92.674 56.952 90.897 56.372 Q 89.119 55.792 87.156 55.792 Q 83.634 55.792 81.616 58.051 Q 79.604 60.304 79.604 64.269 Q 79.604 68.217 81.616 70.476 Q 83.634 72.729 87.156 72.729 Q 89.119 72.729 90.897 72.149 Q 92.674 71.564 94.506 70.317 L 94.506 75.600 Z M 106.826 72.166 L 118.054 72.166 L 118.054 77.000 L 99.509 77.000 L 99.509 72.166 L 108.823 63.941 Q 110.075 62.814 110.671 61.737 Q 111.267 60.659 111.267 59.500 Q 111.267 57.706 110.064 56.612 Q 108.861 55.519 106.859 55.519 Q 105.323 55.519 103.490 56.175 Q 101.664 56.831 99.580 58.133 L 99.580 52.527 Q 101.801 51.795 103.972 51.412 Q 106.143 51.023 108.226 51.023 Q 112.809 51.023 115.347 53.041 Q 117.884 55.054 117.884 58.663 Q 117.884 60.747 116.807 62.552 Q 115.730 64.351 112.279 67.380 L 106.826 72.166 Z M 123.436 51.483 L 142.664 51.483 L 142.664 55.191 L 132.716 77.000 L 126.307 77.000 L 135.724 56.323 L 123.436 56.323 L 123.436 51.483 Z" fill="#3C79BE"/>
  <path d="M 76.212 89.933 L 76.212 102.047 L 78.605 102.047 L 78.605 89.933 L 76.212 89.933 Z M 65.878 91.103 L 65.878 93.030 L 71.152 93.030 C 71.098 93.517 71.008 93.967 70.865 94.417 L 65.032 94.597 L 65.358 96.467 L 69.912 96.127 C 68.958 97.277 67.408 98.213 65.015 98.933 L 65.915 100.807 C 71.622 99.007 73.655 95.837 73.655 91.103 L 65.878 91.103 Z M 67.498 101.093 L 67.498 106.350 L 79.038 106.350 L 79.038 104.423 L 69.892 104.423 L 69.892 101.093 L 67.498 101.093 Z M 84.042 100.987 L 84.042 102.877 L 93.132 102.877 L 93.132 106.603 L 95.525 106.603 L 95.525 100.987 L 84.042 100.987 Z M 93.258 89.917 L 93.258 100.337 L 95.525 100.337 L 95.525 89.917 L 93.258 89.917 Z M 89.982 90.240 L 89.982 94.147 L 88.362 94.147 L 88.362 96.053 L 89.982 96.053 L 89.982 100.213 L 92.212 100.213 L 92.212 90.240 L 89.982 90.240 Z M 81.952 91.013 L 81.952 99.617 L 83.105 99.617 C 85.552 99.617 87.138 99.583 89.028 99.240 L 88.828 97.367 C 87.318 97.637 86.002 97.727 84.258 97.747 L 84.258 96.180 L 87.642 96.180 L 87.642 94.380 L 84.258 94.380 L 84.258 92.923 L 88.235 92.923 L 88.235 91.013 L 81.952 91.013 Z M 97.882 102.607 L 97.882 104.567 L 112.985 104.567 L 112.985 102.607 L 97.882 102.607 Z M 104.075 90.887 L 104.075 92.093 C 104.075 94.470 102.005 97.117 98.242 97.763 L 99.268 99.763 C 102.148 99.187 104.272 97.547 105.335 95.460 C 106.415 97.567 108.522 99.187 111.438 99.763 L 112.462 97.763 C 108.682 97.117 106.632 94.523 106.632 92.093 L 106.632 90.887 L 104.075 90.887 Z" fill="#FFFFFF"/>
  <path d="M 63.387 116.917 L 63.387 133.583 L 65.670 133.583 L 65.670 116.917 L 63.387 116.917 Z M 60.020 117.187 L 60.020 122.623 L 57.897 122.623 L 57.897 124.567 L 60.020 124.567 L 60.020 132.827 L 62.250 132.827 L 62.250 117.187 L 60.020 117.187 Z M 51.630 118.590 L 51.630 120.517 L 54.313 120.517 L 54.313 121.343 C 54.313 124.207 53.467 127.177 51.020 128.723 L 52.440 130.487 C 53.953 129.553 54.927 127.933 55.500 126.007 C 56.060 127.753 56.997 129.210 58.470 130.073 L 59.857 128.347 C 57.447 126.923 56.637 124.133 56.637 121.343 L 56.637 120.517 L 59.067 120.517 L 59.067 118.590 L 51.630 118.590 Z M 67.957 132.000 L 76.887 132.000 L 76.887 129.767 L 74.007 129.767 C 73.377 129.767 72.493 129.840 71.810 129.930 C 74.240 127.537 76.257 124.943 76.257 122.533 C 76.257 120.047 74.580 118.427 72.060 118.427 C 70.243 118.427 69.057 119.130 67.813 120.463 L 69.290 121.883 C 69.957 121.147 70.747 120.517 71.720 120.517 C 72.997 120.517 73.717 121.343 73.717 122.657 C 73.717 124.727 71.593 127.230 67.957 130.470 L 67.957 132.000 Z M 90.080 116.933 L 90.080 121.237 L 87.470 121.237 L 87.470 123.163 L 90.080 123.163 L 90.080 129.083 L 92.490 129.083 L 92.490 116.933 L 90.080 116.933 Z M 81.477 128.057 L 81.477 133.313 L 92.870 133.313 L 92.870 131.387 L 83.870 131.387 L 83.870 128.057 L 81.477 128.057 Z M 79.100 118.050 L 79.100 119.957 L 82.393 119.957 L 82.393 120.157 C 82.393 122.280 81.187 124.440 78.450 125.357 L 79.640 127.267 C 81.583 126.600 82.917 125.287 83.637 123.630 C 84.357 125.123 85.580 126.330 87.417 126.923 L 88.587 125.070 C 85.957 124.170 84.807 122.117 84.807 120.157 L 84.807 119.957 L 88.063 119.957 L 88.063 118.050 L 79.100 118.050 Z M 106.530 116.897 L 106.530 133.620 L 108.927 133.620 L 108.927 116.897 L 106.530 116.897 Z M 99.150 118.213 L 99.150 120.623 C 99.150 123.863 97.783 127.087 94.887 128.347 L 96.307 130.327 C 98.307 129.390 99.657 127.607 100.393 125.393 C 101.130 127.427 102.427 129.067 104.337 129.930 L 105.720 127.987 C 102.877 126.780 101.563 123.720 101.563 120.623 L 101.563 118.213 L 99.150 118.213 Z M 119.330 127.103 C 115.873 127.103 113.677 128.327 113.677 130.343 C 113.677 132.397 115.873 133.603 119.330 133.603 C 122.787 133.603 124.963 132.397 124.963 130.343 C 124.963 128.327 122.787 127.103 119.330 127.103 Z M 119.330 128.977 C 121.453 128.977 122.587 129.407 122.587 130.343 C 122.587 131.297 121.453 131.747 119.330 131.747 C 117.207 131.747 116.070 131.297 116.070 130.343 C 116.070 129.407 117.207 128.977 119.330 128.977 Z M 112.040 118.033 L 112.040 119.940 L 115.370 119.940 C 115.333 122.027 114.127 124.133 111.427 125.033 L 112.617 126.923 C 114.597 126.277 115.910 124.963 116.647 123.287 C 117.367 124.693 118.610 125.790 120.447 126.347 L 121.597 124.477 C 118.970 123.703 117.817 121.847 117.780 119.940 L 121.057 119.940 L 121.057 118.033 L 112.040 118.033 Z M 122.370 116.933 L 122.370 126.817 L 124.767 126.817 L 124.767 122.713 L 126.980 122.713 L 126.980 120.750 L 124.767 120.750 L 124.767 116.933 L 122.370 116.933 Z" fill="#FFFFFF"/>
  <g fill="none" stroke="#D5D6D8" stroke-width="2.2" stroke-linecap="round" stroke-linejoin="round">
    <path d="M 79 174 H 100"/>
    <path d="M 93 167 L 100 174 L 93 181"/>
  </g>
</svg>